<svg width="104" height="104" viewBox="0 0 104 104" xmlns="http://www.w3.org/2000/svg" xmlns:xlink="http://www.w3.org/1999/xlink">
    <defs>
        <filter x="-7.3%" y="-5.2%" width="114.6%" height="114.6%" filterUnits="objectBoundingBox" id="11mzmw8m8a">
            <feOffset dy="2" in="SourceAlpha" result="shadowOffsetOuter1"/>
            <feGaussianBlur stdDeviation="2" in="shadowOffsetOuter1" result="shadowBlurOuter1"/>
            <feComposite in="shadowBlurOuter1" in2="SourceAlpha" operator="out" result="shadowBlurOuter1"/>
            <feColorMatrix values="0 0 0 0 0 0 0 0 0 0 0 0 0 0 0 0 0 0 0.1 0" in="shadowBlurOuter1"/>
        </filter>
        <path d="M48 96c26.51 0 48-20.698 48-47.49C96 21.72 74.51 0 48 0S0 21.719 0 48.51C0 75.303 21.49 96 48 96z" id="5v9kr0k1sb"/>
    </defs>
    <g fill="none" fill-rule="evenodd">
        <g transform="translate(4 2)">
            <use fill="#000" filter="url(#11mzmw8m8a)" xlink:href="#5v9kr0k1sb"/>
            <path stroke="#D8D8D8" stroke-width="2" d="M48 1c12.977 0 24.726 5.317 33.23 13.912C89.738 23.51 95 35.39 95 48.51c0 13.042-5.2 24.61-13.624 32.944C72.86 89.882 61.05 95 48 95c-13.05 0-24.859-5.118-33.376-13.545C6.2 73.121 1 61.553 1 48.511c0-13.121 5.262-25 13.77-33.6C23.274 6.318 35.023 1 48 1z" stroke-linejoin="square" fill="#FFF"/>
        </g>
        <path d="M34 46.907 52 31l18 15.907M52 31v38" stroke="#666" stroke-width="4" stroke-linecap="round" stroke-linejoin="round"/>
    </g>
</svg>
