<svg width="25" height="28" viewBox="0 0 25 28" xmlns="http://www.w3.org/2000/svg">
    <path d="m24.15 27.45-3.9-4.77c.92-1.24 1.595-2.645 2.025-4.215.43-1.57.645-3.235.645-4.995 0-1.8-.235-3.51-.705-5.13S21.04 5.29 20.1 4.05c-.94-1.24-2.13-2.225-3.57-2.955S13.4 0 11.46 0C9.52 0 7.83.365 6.39 1.095c-1.44.73-2.63 1.715-3.57 2.955S1.175 6.72.705 8.34C.235 9.96 0 11.67 0 13.47c0 1.78.235 3.475.705 5.085.47 1.61 1.175 3.035 2.115 4.275.94 1.24 2.13 2.225 3.57 2.955s3.13 1.095 5.07 1.095c.96 0 1.795-.085 2.505-.255.71-.17 1.415-.425 2.115-.765l1.35 1.59h6.72zm-12.69-5.67c-1.18 0-2.12-.255-2.82-.765a5.219 5.219 0 0 1-1.635-1.965 8.37 8.37 0 0 1-.765-2.67 23.925 23.925 0 0 1 0-5.85c.12-1 .375-1.9.765-2.7.39-.8.935-1.455 1.635-1.965s1.64-.765 2.82-.765c1.16 0 2.1.255 2.82.765.72.51 1.27 1.165 1.65 1.965.38.8.635 1.7.765 2.7.13 1 .195 1.98.195 2.94 0 .8-.02 1.59-.06 2.37-.04.78-.13 1.61-.27 2.49l-1.86-2.46H8.1l4.68 5.7a6.7 6.7 0 0 1-.615.165 3.96 3.96 0 0 1-.705.045z" fill="#222" fill-rule="nonzero"/>
</svg>
