<svg width="216" height="216" viewBox="0 0 216 216" xmlns="http://www.w3.org/2000/svg" xmlns:xlink="http://www.w3.org/1999/xlink">
    <defs>
        <circle id="a" cx="108" cy="108" r="108"/>
    </defs>
    <g fill="none" fill-rule="evenodd" opacity=".2">
        <mask id="b" fill="#fff">
            <use xlink:href="#a"/>
        </mask>
        <g mask="url(#b)" fill="#FFF">
            <g transform="translate(-95.2 -12.6)">
                <ellipse style="mix-blend-mode:overlay" cx="111.318" cy="220.27" rx="1.953" ry="1.949"/>
                <ellipse style="mix-blend-mode:overlay" cx="129.545" cy="220.27" rx="1.953" ry="1.949"/>
                <ellipse style="mix-blend-mode:overlay" cx="147.773" cy="220.27" rx="1.953" ry="1.949"/>
                <ellipse style="mix-blend-mode:overlay" cx="166" cy="220.27" rx="1.953" ry="1.949"/>
                <ellipse style="mix-blend-mode:overlay" cx="184.227" cy="220.27" rx="1.953" ry="1.949"/>
                <ellipse style="mix-blend-mode:overlay" cx="202.455" cy="220.27" rx="1.953" ry="1.949"/>
                <ellipse style="mix-blend-mode:overlay" cx="111.318" cy="147.497" rx="1.953" ry="1.949"/>
                <ellipse style="mix-blend-mode:overlay" cx="129.545" cy="147.497" rx="1.953" ry="1.949"/>
                <ellipse style="mix-blend-mode:overlay" cx="147.773" cy="147.497" rx="1.953" ry="1.949"/>
                <ellipse style="mix-blend-mode:overlay" cx="166" cy="147.497" rx="1.953" ry="1.949"/>
                <ellipse style="mix-blend-mode:overlay" cx="184.227" cy="147.497" rx="1.953" ry="1.949"/>
                <ellipse style="mix-blend-mode:overlay" cx="202.455" cy="147.497" rx="1.953" ry="1.949"/>
                <ellipse style="mix-blend-mode:overlay" cx="111.318" cy="165.69" rx="1.953" ry="1.949"/>
                <ellipse style="mix-blend-mode:overlay" cx="129.545" cy="165.69" rx="1.953" ry="1.949"/>
                <ellipse style="mix-blend-mode:overlay" cx="147.773" cy="165.69" rx="1.953" ry="1.949"/>
                <ellipse style="mix-blend-mode:overlay" cx="166" cy="165.69" rx="1.953" ry="1.949"/>
                <ellipse style="mix-blend-mode:overlay" cx="184.227" cy="165.69" rx="1.953" ry="1.949"/>
                <ellipse style="mix-blend-mode:overlay" cx="202.455" cy="165.69" rx="1.953" ry="1.949"/>
                <ellipse style="mix-blend-mode:overlay" cx="111.318" cy="183.884" rx="1.953" ry="1.949"/>
                <ellipse style="mix-blend-mode:overlay" cx="129.545" cy="183.884" rx="1.953" ry="1.949"/>
                <ellipse style="mix-blend-mode:overlay" cx="147.773" cy="183.884" rx="1.953" ry="1.949"/>
                <ellipse style="mix-blend-mode:overlay" cx="166" cy="183.884" rx="1.953" ry="1.949"/>
                <ellipse style="mix-blend-mode:overlay" cx="184.227" cy="183.884" rx="1.953" ry="1.949"/>
                <ellipse style="mix-blend-mode:overlay" cx="202.455" cy="183.884" rx="1.953" ry="1.949"/>
                <ellipse style="mix-blend-mode:overlay" cx="111.318" cy="202.077" rx="1.953" ry="1.949"/>
                <ellipse style="mix-blend-mode:overlay" cx="129.545" cy="202.077" rx="1.953" ry="1.949"/>
                <ellipse style="mix-blend-mode:overlay" cx="147.773" cy="202.077" rx="1.953" ry="1.949"/>
                <ellipse style="mix-blend-mode:overlay" cx="166" cy="202.077" rx="1.953" ry="1.949"/>
                <ellipse style="mix-blend-mode:overlay" cx="184.227" cy="202.077" rx="1.953" ry="1.949"/>
                <ellipse style="mix-blend-mode:overlay" cx="202.455" cy="202.077" rx="1.953" ry="1.949"/>
                <ellipse style="mix-blend-mode:overlay" cx="220.682" cy="220.27" rx="1.953" ry="1.949"/>
                <ellipse style="mix-blend-mode:overlay" cx="238.91" cy="220.27" rx="1.953" ry="1.949"/>
                <ellipse style="mix-blend-mode:overlay" cx="257.137" cy="220.27" rx="1.953" ry="1.949"/>
                <ellipse style="mix-blend-mode:overlay" cx="275.365" cy="220.27" rx="1.953" ry="1.949"/>
                <ellipse style="mix-blend-mode:overlay" cx="293.592" cy="220.27" rx="1.953" ry="1.949"/>
                <ellipse style="mix-blend-mode:overlay" cx="311.82" cy="220.27" rx="1.953" ry="1.949"/>
                <ellipse style="mix-blend-mode:overlay" cx="220.682" cy="147.497" rx="1.953" ry="1.949"/>
                <ellipse style="mix-blend-mode:overlay" cx="238.91" cy="147.497" rx="1.953" ry="1.949"/>
                <ellipse style="mix-blend-mode:overlay" cx="257.137" cy="147.497" rx="1.953" ry="1.949"/>
                <ellipse style="mix-blend-mode:overlay" cx="275.365" cy="147.497" rx="1.953" ry="1.949"/>
                <ellipse style="mix-blend-mode:overlay" cx="293.592" cy="147.497" rx="1.953" ry="1.949"/>
                <ellipse style="mix-blend-mode:overlay" cx="311.82" cy="147.497" rx="1.953" ry="1.949"/>
                <ellipse style="mix-blend-mode:overlay" cx="220.682" cy="165.69" rx="1.953" ry="1.949"/>
                <ellipse style="mix-blend-mode:overlay" cx="238.91" cy="165.69" rx="1.953" ry="1.949"/>
                <ellipse style="mix-blend-mode:overlay" cx="257.137" cy="165.69" rx="1.953" ry="1.949"/>
                <ellipse style="mix-blend-mode:overlay" cx="275.365" cy="165.69" rx="1.953" ry="1.949"/>
                <ellipse style="mix-blend-mode:overlay" cx="293.592" cy="165.69" rx="1.953" ry="1.949"/>
                <ellipse style="mix-blend-mode:overlay" cx="311.82" cy="165.69" rx="1.953" ry="1.949"/>
                <ellipse style="mix-blend-mode:overlay" cx="220.682" cy="183.884" rx="1.953" ry="1.949"/>
                <ellipse style="mix-blend-mode:overlay" cx="238.91" cy="183.884" rx="1.953" ry="1.949"/>
                <ellipse style="mix-blend-mode:overlay" cx="257.137" cy="183.884" rx="1.953" ry="1.949"/>
                <ellipse style="mix-blend-mode:overlay" cx="275.365" cy="183.884" rx="1.953" ry="1.949"/>
                <ellipse style="mix-blend-mode:overlay" cx="293.592" cy="183.884" rx="1.953" ry="1.949"/>
                <ellipse style="mix-blend-mode:overlay" cx="311.82" cy="183.884" rx="1.953" ry="1.949"/>
                <ellipse style="mix-blend-mode:overlay" cx="220.682" cy="202.077" rx="1.953" ry="1.949"/>
                <ellipse style="mix-blend-mode:overlay" cx="238.91" cy="202.077" rx="1.953" ry="1.949"/>
                <ellipse style="mix-blend-mode:overlay" cx="257.137" cy="202.077" rx="1.953" ry="1.949"/>
                <ellipse style="mix-blend-mode:overlay" cx="275.365" cy="202.077" rx="1.953" ry="1.949"/>
                <ellipse style="mix-blend-mode:overlay" cx="293.592" cy="202.077" rx="1.953" ry="1.949"/>
                <ellipse style="mix-blend-mode:overlay" cx="311.82" cy="202.077" rx="1.953" ry="1.949"/>
                <ellipse style="mix-blend-mode:overlay" cx="111.318" cy="74.723" rx="1.953" ry="1.949"/>
                <ellipse style="mix-blend-mode:overlay" cx="129.545" cy="74.723" rx="1.953" ry="1.949"/>
                <ellipse style="mix-blend-mode:overlay" cx="147.773" cy="74.723" rx="1.953" ry="1.949"/>
                <ellipse style="mix-blend-mode:overlay" cx="166" cy="74.723" rx="1.953" ry="1.949"/>
                <ellipse style="mix-blend-mode:overlay" cx="184.227" cy="74.723" rx="1.953" ry="1.949"/>
                <ellipse style="mix-blend-mode:overlay" cx="202.455" cy="74.723" rx="1.953" ry="1.949"/>
                <ellipse style="mix-blend-mode:overlay" cx="111.318" cy="92.916" rx="1.953" ry="1.949"/>
                <ellipse style="mix-blend-mode:overlay" cx="129.545" cy="92.916" rx="1.953" ry="1.949"/>
                <ellipse style="mix-blend-mode:overlay" cx="147.773" cy="92.916" rx="1.953" ry="1.949"/>
                <ellipse style="mix-blend-mode:overlay" cx="166" cy="92.916" rx="1.953" ry="1.949"/>
                <ellipse style="mix-blend-mode:overlay" cx="184.227" cy="92.916" rx="1.953" ry="1.949"/>
                <ellipse style="mix-blend-mode:overlay" cx="202.455" cy="92.916" rx="1.953" ry="1.949"/>
                <ellipse style="mix-blend-mode:overlay" cx="111.318" cy="111.11" rx="1.953" ry="1.949"/>
                <ellipse style="mix-blend-mode:overlay" cx="129.545" cy="111.11" rx="1.953" ry="1.949"/>
                <ellipse style="mix-blend-mode:overlay" cx="147.773" cy="111.11" rx="1.953" ry="1.949"/>
                <ellipse style="mix-blend-mode:overlay" cx="166" cy="111.11" rx="1.953" ry="1.949"/>
                <ellipse style="mix-blend-mode:overlay" cx="184.227" cy="111.11" rx="1.953" ry="1.949"/>
                <ellipse style="mix-blend-mode:overlay" cx="202.455" cy="111.11" rx="1.953" ry="1.949"/>
                <ellipse style="mix-blend-mode:overlay" cx="111.318" cy="129.303" rx="1.953" ry="1.949"/>
                <ellipse style="mix-blend-mode:overlay" cx="129.545" cy="129.303" rx="1.953" ry="1.949"/>
                <ellipse style="mix-blend-mode:overlay" cx="147.773" cy="129.303" rx="1.953" ry="1.949"/>
                <ellipse style="mix-blend-mode:overlay" cx="166" cy="129.303" rx="1.953" ry="1.949"/>
                <ellipse style="mix-blend-mode:overlay" cx="184.227" cy="129.303" rx="1.953" ry="1.949"/>
                <ellipse style="mix-blend-mode:overlay" cx="202.455" cy="129.303" rx="1.953" ry="1.949"/>
                <ellipse style="mix-blend-mode:overlay" cx="111.318" cy="20.143" rx="1.953" ry="1.949"/>
                <ellipse style="mix-blend-mode:overlay" cx="129.545" cy="20.143" rx="1.953" ry="1.949"/>
                <ellipse style="mix-blend-mode:overlay" cx="147.773" cy="20.143" rx="1.953" ry="1.949"/>
                <ellipse style="mix-blend-mode:overlay" cx="166" cy="20.143" rx="1.953" ry="1.949"/>
                <ellipse style="mix-blend-mode:overlay" cx="184.227" cy="20.143" rx="1.953" ry="1.949"/>
                <ellipse style="mix-blend-mode:overlay" cx="202.455" cy="20.143" rx="1.953" ry="1.949"/>
                <ellipse style="mix-blend-mode:overlay" cx="111.318" cy="38.336" rx="1.953" ry="1.949"/>
                <ellipse style="mix-blend-mode:overlay" cx="129.545" cy="38.336" rx="1.953" ry="1.949"/>
                <ellipse style="mix-blend-mode:overlay" cx="147.773" cy="38.336" rx="1.953" ry="1.949"/>
                <ellipse style="mix-blend-mode:overlay" cx="166" cy="38.336" rx="1.953" ry="1.949"/>
                <ellipse style="mix-blend-mode:overlay" cx="184.227" cy="38.336" rx="1.953" ry="1.949"/>
                <ellipse style="mix-blend-mode:overlay" cx="202.455" cy="38.336" rx="1.953" ry="1.949"/>
                <ellipse style="mix-blend-mode:overlay" cx="111.318" cy="56.53" rx="1.953" ry="1.949"/>
                <ellipse style="mix-blend-mode:overlay" cx="129.545" cy="56.53" rx="1.953" ry="1.949"/>
                <ellipse style="mix-blend-mode:overlay" cx="147.773" cy="56.53" rx="1.953" ry="1.949"/>
                <ellipse style="mix-blend-mode:overlay" cx="166" cy="56.53" rx="1.953" ry="1.949"/>
                <ellipse style="mix-blend-mode:overlay" cx="184.227" cy="56.53" rx="1.953" ry="1.949"/>
                <ellipse style="mix-blend-mode:overlay" cx="202.455" cy="56.53" rx="1.953" ry="1.949"/>
                <ellipse style="mix-blend-mode:overlay" cx="220.682" cy="74.723" rx="1.953" ry="1.949"/>
                <ellipse style="mix-blend-mode:overlay" cx="238.91" cy="74.723" rx="1.953" ry="1.949"/>
                <ellipse style="mix-blend-mode:overlay" cx="257.137" cy="74.723" rx="1.953" ry="1.949"/>
                <ellipse style="mix-blend-mode:overlay" cx="275.365" cy="74.723" rx="1.953" ry="1.949"/>
                <ellipse style="mix-blend-mode:overlay" cx="293.592" cy="74.723" rx="1.953" ry="1.949"/>
                <ellipse style="mix-blend-mode:overlay" cx="311.82" cy="74.723" rx="1.953" ry="1.949"/>
                <ellipse style="mix-blend-mode:overlay" cx="220.682" cy="92.916" rx="1.953" ry="1.949"/>
                <ellipse style="mix-blend-mode:overlay" cx="238.91" cy="92.916" rx="1.953" ry="1.949"/>
                <ellipse style="mix-blend-mode:overlay" cx="257.137" cy="92.916" rx="1.953" ry="1.949"/>
                <ellipse style="mix-blend-mode:overlay" cx="275.365" cy="92.916" rx="1.953" ry="1.949"/>
                <ellipse style="mix-blend-mode:overlay" cx="293.592" cy="92.916" rx="1.953" ry="1.949"/>
                <ellipse style="mix-blend-mode:overlay" cx="311.82" cy="92.916" rx="1.953" ry="1.949"/>
                <ellipse style="mix-blend-mode:overlay" cx="220.682" cy="111.11" rx="1.953" ry="1.949"/>
                <ellipse style="mix-blend-mode:overlay" cx="238.753" cy="110.749" rx="1.953" ry="1.949"/>
                <ellipse style="mix-blend-mode:overlay" cx="257.153" cy="110.749" rx="1.953" ry="1.949"/>
                <ellipse style="mix-blend-mode:overlay" cx="275.553" cy="110.749" rx="1.953" ry="1.949"/>
                <ellipse style="mix-blend-mode:overlay" cx="293.953" cy="110.749" rx="1.953" ry="1.949"/>
                <ellipse style="mix-blend-mode:overlay" cx="311.553" cy="110.749" rx="1.953" ry="1.949"/>
                <ellipse style="mix-blend-mode:overlay" cx="220.682" cy="129.303" rx="1.953" ry="1.949"/>
                <ellipse style="mix-blend-mode:overlay" cx="238.753" cy="129.149" rx="1.953" ry="1.949"/>
                <ellipse style="mix-blend-mode:overlay" cx="257.153" cy="129.149" rx="1.953" ry="1.949"/>
                <ellipse style="mix-blend-mode:overlay" cx="275.553" cy="129.149" rx="1.953" ry="1.949"/>
                <ellipse style="mix-blend-mode:overlay" cx="293.953" cy="129.149" rx="1.953" ry="1.949"/>
                <ellipse style="mix-blend-mode:overlay" cx="311.553" cy="129.149" rx="1.953" ry="1.949"/>
                <ellipse style="mix-blend-mode:overlay" cx="220.682" cy="20.143" rx="1.953" ry="1.949"/>
                <ellipse style="mix-blend-mode:overlay" cx="238.91" cy="20.143" rx="1.953" ry="1.949"/>
                <ellipse style="mix-blend-mode:overlay" cx="257.137" cy="20.143" rx="1.953" ry="1.949"/>
                <ellipse style="mix-blend-mode:overlay" cx="275.365" cy="20.143" rx="1.953" ry="1.949"/>
                <ellipse style="mix-blend-mode:overlay" cx="293.592" cy="20.143" rx="1.953" ry="1.949"/>
                <ellipse style="mix-blend-mode:overlay" cx="311.82" cy="20.143" rx="1.953" ry="1.949"/>
                <ellipse style="mix-blend-mode:overlay" cx="220.682" cy="38.336" rx="1.953" ry="1.949"/>
                <ellipse style="mix-blend-mode:overlay" cx="238.91" cy="38.336" rx="1.953" ry="1.949"/>
                <ellipse style="mix-blend-mode:overlay" cx="257.137" cy="38.336" rx="1.953" ry="1.949"/>
                <ellipse style="mix-blend-mode:overlay" cx="275.365" cy="38.336" rx="1.953" ry="1.949"/>
                <ellipse style="mix-blend-mode:overlay" cx="293.592" cy="38.336" rx="1.953" ry="1.949"/>
                <ellipse style="mix-blend-mode:overlay" cx="311.82" cy="38.336" rx="1.953" ry="1.949"/>
                <ellipse style="mix-blend-mode:overlay" cx="220.682" cy="56.53" rx="1.953" ry="1.949"/>
                <ellipse style="mix-blend-mode:overlay" cx="238.91" cy="56.53" rx="1.953" ry="1.949"/>
                <ellipse style="mix-blend-mode:overlay" cx="257.137" cy="56.53" rx="1.953" ry="1.949"/>
                <ellipse style="mix-blend-mode:overlay" cx="275.365" cy="56.53" rx="1.953" ry="1.949"/>
                <ellipse style="mix-blend-mode:overlay" cx="293.592" cy="56.53" rx="1.953" ry="1.949"/>
                <ellipse style="mix-blend-mode:overlay" cx="311.82" cy="56.53" rx="1.953" ry="1.949"/>
            </g>
        </g>
    </g>
</svg>
