<svg width="18" height="18" viewBox="0 0 18 18" xmlns="http://www.w3.org/2000/svg">
    <defs>
        <linearGradient x1="0%" y1=".985%" x2="100%" y2="99.015%" id="a">
            <stop stop-color="#00DE63" offset="0%"/>
            <stop stop-color="#1EC8EB" offset="100%"/>
        </linearGradient>
        <linearGradient x1="0%" y1="0%" x2="100%" y2="100%" id="b">
            <stop stop-color="#00DE63" offset="0%"/>
            <stop stop-color="#1EC8EB" offset="100%"/>
        </linearGradient>
    </defs>
    <g fill-rule="nonzero" fill="none">
        <path d="M16.976 17.719a.934.934 0 0 1-.663-.274l-3.694-3.694a.938.938 0 0 1 0-1.312 6.236 6.236 0 1 0-6.792 1.477.938.938 0 1 1-.69 1.744 8.111 8.111 0 1 1 9.435-2.625l3.053 3.09a.937.937 0 0 1 0 1.328.926.926 0 0 1-.649.266z" fill="url(#a)"/>
        <circle fill="url(#b)" cx="9.075" cy="15.24" r="1.204"/>
    </g>
</svg>
